HIERARCHY
ROOT Hips
{
	OFFSET 0.00000 0.00000 0.00000
	CHANNELS 6 Xposition Yposition Zposition Zrotation Yrotation Xrotation 
	JOINT LHipJoint
	{
		OFFSET 0 0 0
		CHANNELS 3 Zrotation Yrotation Xrotation
		JOINT LeftUpLeg
		{
			OFFSET 1.54859 -1.61379 0.86856
			CHANNELS 3 Zrotation Yrotation Xrotation
			JOINT LeftLeg
			{
				OFFSET 2.25087 -6.18423 0.00000
				CHANNELS 3 Zrotation Yrotation Xrotation
				JOINT LeftFoot
				{
					OFFSET 2.40328 -6.60297 0.00000
					CHANNELS 3 Zrotation Yrotation Xrotation
					JOINT LeftToeBase
					{
						OFFSET 0.17435 -0.47901 2.02453
						CHANNELS 3 Zrotation Yrotation Xrotation
						End Site
						{
							OFFSET 0.00000 -0.00000 1.04844
						}
					}
				}
			}
		}
	}
	JOINT RHipJoint
	{
		OFFSET 0 0 0
		CHANNELS 3 Zrotation Yrotation Xrotation
		JOINT RightUpLeg
		{
			OFFSET -1.54669 -1.61379 0.86856
			CHANNELS 3 Zrotation Yrotation Xrotation
			JOINT RightLeg
			{
				OFFSET -2.28132 -6.26789 0.00000
				CHANNELS 3 Zrotation Yrotation Xrotation
				JOINT RightFoot
				{
					OFFSET -2.51636 -6.91365 0.00000
					CHANNELS 3 Zrotation Yrotation Xrotation
					JOINT RightToeBase
					{
						OFFSET -0.15124 -0.41552 2.21090
						CHANNELS 3 Zrotation Yrotation Xrotation
						End Site
						{
							OFFSET -0.00000 -0.00000 1.13399
						}
					}
				}
			}
		}
	}
	JOINT LowerBack
	{
		OFFSET 0 0 0
		CHANNELS 3 Zrotation Yrotation Xrotation
		JOINT Spine
		{
			OFFSET -0.04287 2.26161 -0.25690
			CHANNELS 3 Zrotation Yrotation Xrotation
			JOINT Spine1
			{
				OFFSET 0.02248 2.28395 -0.10140
				CHANNELS 3 Zrotation Yrotation Xrotation
				JOINT Neck
				{
					OFFSET 0 0 0
					CHANNELS 3 Zrotation Yrotation Xrotation
					JOINT Neck1
					{
						OFFSET -0.11644 1.38496 0.11345
						CHANNELS 3 Zrotation Yrotation Xrotation
						JOINT Head
						{
							OFFSET 0.29383 1.36600 0.06642
							CHANNELS 3 Zrotation Yrotation Xrotation
							End Site
							{
								OFFSET 0.11075 1.41395 -0.00294
							}
						}
					}
				}
				JOINT LeftShoulder
				{
					OFFSET 0 0 0
					CHANNELS 3 Zrotation Yrotation Xrotation
					JOINT LeftArm
					{
						OFFSET 3.51628 0.59542 -0.30346
						CHANNELS 3 Zrotation Yrotation Xrotation
						JOINT LeftForeArm
						{
							OFFSET 4.76405 -0.00000 0.00000
							CHANNELS 3 Zrotation Yrotation Xrotation
							JOINT LeftHand
							{
								OFFSET 3.13759 -0.00000 -0.00000
								CHANNELS 3 Zrotation Yrotation Xrotation
								JOINT LeftFingerBase
								{
									OFFSET 0 0 0
									CHANNELS 3 Zrotation Yrotation Xrotation
									JOINT LeftHandIndex1
									{
										OFFSET 0.73226 -0.00000 -0.00000
										CHANNELS 3 Zrotation Yrotation Xrotation
										End Site
										{
											OFFSET 0.59037 -0.00000 -0.00000
										}
									}
								}
								JOINT LThumb
								{
									OFFSET 0 0 0
									CHANNELS 3 Zrotation Yrotation Xrotation
									End Site
									{
										OFFSET 0.59938 -0.00000 0.59938
									}
								}
							}
						}
					}
				}
				JOINT RightShoulder
				{
					OFFSET 0 0 0
					CHANNELS 3 Zrotation Yrotation Xrotation
					JOINT RightArm
					{
						OFFSET -3.30990 0.84213 -0.36430
						CHANNELS 3 Zrotation Yrotation Xrotation
						JOINT RightForeArm
						{
							OFFSET -5.10161 -0.00000 -0.00000
							CHANNELS 3 Zrotation Yrotation Xrotation
							JOINT RightHand
							{
								OFFSET -3.23267 -0.00000 -0.00000
								CHANNELS 3 Zrotation Yrotation Xrotation
								JOINT RightFingerBase
								{
									OFFSET 0 0 0
									CHANNELS 3 Zrotation Yrotation Xrotation
									JOINT RightHandIndex1
									{
										OFFSET -0.70200 -0.00000 -0.00000
										CHANNELS 3 Zrotation Yrotation Xrotation
										End Site
										{
											OFFSET -0.56597 -0.00000 -0.00000
										}
									}
								}
								JOINT RThumb
								{
									OFFSET 0 0 0
									CHANNELS 3 Zrotation Yrotation Xrotation
									End Site
									{
										OFFSET -0.57461 -0.00000 0.57461
									}
								}
							}
						}
					}
				}
			}
		}
	}
}
MOTION
Frames: 9
Frame Time: .0083333
9.7155 15.6962 -4.7136 29.4175 63.2822 35.1608 0.0000 0.0000 0.0000 -20.8379 12.9260 26.4260 0.1417 2.4263 6.6855 0.0088 13.3408 9.4724 5.7042 -14.1354 -43.7825 0.0000 0.0000 0.0000 13.1267 16.0733 -53.1252 -13.0897 -18.8143 69.4039 -0.3255 1.5580 -10.3461 -0.5469 4.7378 -13.1621 -14.6892 -3.3371 11.8673 0.3374 -5.7672 5.2000 9.1847 -3.1212 0.4873 -13.5581 -3.6218 -6.0898 18.7440 -3.2025 -8.0352 8.0145 -1.3793 -0.6815 0.0000 0.0000 0.0000 -77.0891 4.3537 40.2069 82.7480 -59.8003 -53.7238 -0.0000 0.0000 -12.6697 39.1098 16.9331 13.3211 -7.1250 0.0000 -0.0000 11.4760 51.0476 1.7292 0.0000 0.0000 0.0000 85.3038 15.1490 23.2156 -132.8557 51.7768 -96.0883 0.0000 -0.0000 -14.5031 -43.2473 35.2015 -28.4675 7.1250 -0.0000 -0.0000 -5.2564 13.9417 -6.3913
10.3494 15.7558 -4.4990 29.3561 62.8316 35.5560 0.0000 0.0000 0.0000 -20.3985 14.6264 29.7521 0.0358 1.2220 3.3597 -0.1390 16.5635 10.1874 4.6992 -13.0368 -39.5064 0.0000 0.0000 0.0000 13.0425 16.2778 -52.9832 -11.0005 -17.9353 62.7831 -0.3261 2.0947 -10.2628 -0.7667 5.5915 -15.6038 -14.3956 -3.6908 11.0603 0.4960 -6.1130 4.9616 9.1494 -3.3058 0.7409 -13.5924 -2.9609 -5.8959 18.1154 -2.3726 -7.8093 7.8380 -0.9677 -0.8079 0.0000 -0.0000 0.0000 -75.6160 5.8286 40.9055 86.3132 -59.9486 -56.8077 -0.0000 0.0000 -13.3204 39.6439 16.7562 13.4348 -7.1250 0.0000 -0.0000 12.0356 50.9445 1.7848 0.0000 -0.0000 0.0000 83.9384 15.9228 25.2268 -136.4172 50.0550 -98.8535 0.0000 -0.0000 -12.5472 -40.9916 34.3168 -26.1017 7.1250 -0.0000 -0.0000 -4.3524 12.0368 -5.1776
10.9883 15.8094 -4.2728 29.2754 62.2324 35.6357 0.0000 0.0000 0.0000 -19.8119 16.4763 33.4358 0.0000 -0.0000 -0.0000 -0.1385 18.5839 11.7958 4.4439 -12.7288 -38.3617 0.0000 0.0000 0.0000 13.1389 16.3349 -52.2671 -9.0560 -16.8436 56.2837 -0.3116 2.6306 -9.9640 -0.7408 5.4984 -15.3358 -14.2857 -3.9611 10.3104 0.6204 -6.3589 4.8911 9.1625 -3.4602 1.1412 -13.4183 -2.3628 -5.2680 17.6239 -1.5906 -8.3144 7.6776 -0.6117 -1.1999 -0.0000 0.0000 0.0000 -74.3710 7.3439 41.1752 89.5166 -59.9991 -59.5814 -0.0000 0.0000 -15.1540 39.7506 15.5561 12.5740 -7.1250 0.0000 -0.0000 12.0611 49.4998 1.3558 -0.0000 0.0000 0.0000 82.4773 17.1518 27.3071 -139.3175 48.4691 -101.0514 0.0000 -0.0000 -9.0236 -38.2383 33.4213 -23.4621 7.1250 -0.0000 -0.0000 -3.1458 10.0028 -3.6494
11.6341 15.8641 -4.0369 29.8395 61.5938 36.2732 0.0000 0.0000 0.0000 -19.8894 17.6528 35.2901 0.0000 0.0000 0.0000 -0.0048 18.3583 12.8670 4.7760 -13.1270 -39.8459 0.0000 0.0000 0.0000 13.0086 16.0884 -51.4516 -7.3155 -15.5919 50.0579 -0.2934 3.2504 -9.6294 -0.6125 5.0090 -13.9342 -14.5554 -4.2900 9.5280 0.7673 -6.7093 4.8238 9.4022 -3.6839 1.6482 -13.6109 -1.6609 -4.6349 17.2079 -0.6436 -8.9185 7.6030 -0.1616 -1.6394 -0.0000 -0.0000 0.0000 -73.5637 9.1201 41.5399 90.6332 -59.9985 -60.5483 -0.0000 0.0000 -15.5059 40.3610 15.7845 13.0173 -7.1250 0.0000 -0.0000 12.7186 49.9027 1.5595 -0.0000 -0.0000 0.0000 81.2633 19.1289 29.5356 -141.4406 47.1929 -102.6252 0.0000 -0.0000 -4.1027 -36.1272 32.9818 -21.6709 7.1250 -0.0000 -0.0000 -2.1251 8.7767 -2.4260
12.2910 15.9056 -3.8003 30.5497 60.6283 36.9847 0.0000 0.0000 0.0000 -20.2797 19.0532 37.1050 0.0000 -0.0000 -0.0000 0.2195 17.4280 14.2465 5.0030 -13.3872 -40.8356 0.0000 0.0000 0.0000 12.7042 15.8236 -50.6030 -5.8319 -14.2635 44.3035 -0.2658 3.8921 -9.1770 -0.4416 4.2640 -11.8205 -14.9960 -4.5520 8.6383 0.7882 -6.9622 4.7565 9.5780 -3.8636 2.2013 -13.3234 -1.1021 -4.8582 16.5914 0.0371 -8.3607 7.3453 0.1905 -1.5619 0.0000 -0.0000 0.0000 -72.9545 11.0374 41.6169 90.8906 -59.9970 -60.7712 -0.0000 0.0000 -16.5302 40.7845 15.0805 12.6507 -7.1250 0.0000 -0.0000 13.0924 49.1179 1.3505 0.0000 -0.0000 0.0000 80.1718 21.2580 32.0586 -143.0301 46.1686 -103.7817 0.0000 0.0000 1.3538 -35.7606 33.0428 -21.4394 7.1250 -0.0000 -0.0000 -1.9119 8.7166 -2.1807
12.8922 15.9532 -3.5600 32.6678 60.3668 39.1185 0.0000 0.0000 0.0000 -21.6309 18.2691 34.8425 0.1537 2.5260 6.9617 0.2004 15.1575 12.7218 5.1221 -13.5200 -41.3475 0.0000 0.0000 0.0000 12.1031 14.9583 -50.1419 -4.6206 -12.9433 39.1567 -0.2401 3.9484 -8.7366 -0.1691 2.6495 -7.3045 -15.6429 -5.0110 8.5036 0.7578 -7.6299 4.4094 9.9023 -4.1942 2.1769 -12.0780 -0.4899 -5.3462 14.6782 0.6938 -7.6573 6.5007 0.5296 -1.3986 0.0000 0.0000 0.0000 -72.1773 13.1307 41.8586 89.9220 -60.0000 -59.9324 -0.0000 0.0000 -16.9368 40.9163 14.8443 12.5193 -7.1250 0.0000 -0.0000 13.2039 48.8504 1.2742 0.0000 0.0000 0.0000 78.5720 22.8120 34.7724 -144.4603 45.1937 -104.8050 0.0000 0.0000 5.8155 -35.7156 33.0306 -21.4007 7.1250 -0.0000 -0.0000 -1.8906 8.6882 -2.1556
13.5173 15.9804 -3.3218 33.8979 59.6484 40.0890 0.0000 0.0000 0.0000 -22.5908 18.4084 33.7414 0.4816 4.4501 12.3466 0.2222 13.5160 12.0166 5.0245 -13.4114 -40.9286 0.0000 0.0000 0.0000 11.9776 14.0573 -49.4487 -3.7058 -11.7583 34.8821 -0.1839 3.0299 -7.6209 -0.1252 2.2814 -6.2839 -16.2341 -5.3246 8.2556 0.7780 -8.0674 4.2093 10.2224 -4.4302 2.3194 -10.5509 0.2429 -6.3057 12.6080 1.4957 -6.4744 5.5807 0.9476 -1.0087 0.0000 -0.0000 0.0000 -71.9071 15.3709 41.9718 87.8703 -59.9829 -58.1558 -0.0000 0.0000 -16.6573 40.8415 15.1139 12.7019 -7.1250 0.0000 -0.0000 13.1552 49.1706 1.3745 0.0000 -0.0000 0.0000 76.3881 24.6554 37.7777 -145.5353 44.4261 -105.5626 0.0000 0.0000 8.6594 -35.0387 33.0219 -20.9135 7.1250 -0.0000 -0.0000 -1.5263 8.4513 -1.7346
14.1344 15.9920 -3.0859 34.8921 58.9061 41.1027 0.0000 0.0000 0.0000 -23.2031 18.8907 32.1212 1.0058 6.3816 17.8958 0.2144 11.6711 10.9575 5.1992 -13.6047 -41.6763 0.0000 0.0000 0.0000 11.9727 13.0886 -49.2196 -3.0453 -10.7680 31.5012 -0.1334 3.0456 -6.5175 -0.0023 0.3121 -0.8575 -17.0001 -5.7041 7.7717 1.1011 -8.5689 3.9714 10.9322 -4.7294 2.6613 -10.3327 1.1118 -6.4111 11.1957 2.5848 -6.2085 5.1057 1.4953 -1.0382 0.0000 0.0000 0.0000 -72.5492 17.5435 41.7727 84.7598 -59.8960 -55.4634 -0.0000 0.0000 -15.7651 40.5437 15.6692 13.0087 -7.1250 0.0000 -0.0000 12.8998 49.7977 1.5487 0.0000 0.0000 0.0000 73.8805 27.3885 41.0137 -146.3177 43.8479 -106.1075 0.0000 0.0000 9.9137 -33.4950 33.3562 -19.9946 7.1250 -0.0000 -0.0000 -0.6098 8.3048 -0.6916
14.7431 15.9822 -2.8554 35.4726 58.1318 41.6564 0.0000 0.0000 0.0000 -23.5475 19.6102 30.5486 1.7008 8.2128 23.3623 0.2384 10.2081 10.5480 5.1243 -13.5224 -41.3568 0.0000 0.0000 0.0000 12.1602 12.1989 -49.0174 -2.6074 -10.0306 29.0758 -0.1061 1.0307 -5.8745 -0.0320 -1.1556 3.1770 -15.9508 -5.8125 6.5968 -0.1321 -8.3760 4.3805 8.8443 -4.6283 3.3248 -8.9072 1.7011 -6.4998 11.4865 3.3224 -6.0613 4.9593 1.8411 -1.0401 -0.0000 0.0000 0.0000 -69.7564 18.7485 42.8960 80.9308 -59.6869 -52.1541 -0.0000 0.0000 -15.4660 39.9449 16.2023 13.1527 -7.1250 0.0000 -0.0000 12.3150 50.3306 1.6397 -0.0000 0.0000 0.0000 73.9553 30.1418 43.6844 -147.0861 43.2638 -106.6369 0.0000 0.0000 10.5451 -30.9768 33.5820 -18.3687 7.1250 -0.0000 -0.0000 0.8095 7.7708 0.9116
